<?xml version="1.0" encoding="UTF-8"?>
<!DOCTYPE svg PUBLIC "-//W3C//DTD SVG 1.1//EN" "http://www.w3.org/Graphics/SVG/1.1/DTD/svg11.dtd">
<!-- Creator: CorelDRAW X7 -->
<svg xmlns="http://www.w3.org/2000/svg" xml:space="preserve" width="19.0168mm" height="5.3264mm" version="1.1" style="shape-rendering:geometricPrecision; text-rendering:geometricPrecision; image-rendering:optimizeQuality; fill-rule:evenodd; clip-rule:evenodd"
viewBox="0 0 1902 533"
 xmlns:xlink="http://www.w3.org/1999/xlink">
 <defs>
  <style type="text/css">
   <![CDATA[
    .fil3 {fill:#151515}
    .fil1 {fill:#185575}
    .fil0 {fill:#2495D7}
    .fil2 {fill:#256D9B}
   ]]>
  </style>
 </defs>
 <g id="Capa_x0020_1">
  <metadata id="CorelCorpID_0Corel-Layer"/>
  <g id="_285161067248">
   <path class="fil0" d="M494 196c-7,25 -29,51 -54,70l0 0 0 0 0 0 0 0 0 0 0 0 0 0 0 0 0 0 0 0 0 0 0 0 0 0 0 0 0 0 0 0 0 0 0 0 0 0 0 0 0 0 0 0 0 0 0 0 0 0 0 0 0 0 0 0 0 0 0 1 0 0 0 0c-1,0 -2,1 -3,2l0 0 0 0 0 0c0,0 0,0 0,0l-3 2 0 0c-11,8 -22,14 -32,19 1,2 1,3 1,4 3,15 7,30 13,44 5,11 11,21 18,28 2,2 4,3 6,4 19,-9 37,-20 54,-33 25,-20 47,-44 64,-71 2,-3 4,-6 5,-9 14,-23 23,-45 24,-72 2,-47 -21,-94 -65,-119 -50,-29 -111,-21 -152,15 -12,10 -23,24 -31,38 6,0 13,1 19,2 9,1 19,3 28,6 7,1 15,3 22,6 7,2 14,4 21,7 3,2 7,3 10,5 21,-8 46,1 54,23 3,9 3,18 1,28z"/>
   <path class="fil1" d="M423 377c-19,-17 -31,-50 -36,-80 -1,-11 -2,-22 -2,-31 0,-4 0,-9 0,-14 -1,-1 -2,-1 -4,-2 -14,-5 -28,-10 -42,-11 -11,-2 -22,-1 -32,1 -2,1 -4,1 -6,2 -2,21 -1,43 2,66 4,31 13,63 27,90 14,28 34,52 59,67 39,24 90,26 133,2 51,-30 75,-89 62,-144 -3,-14 -10,-28 -17,-42 -8,12 -17,23 -26,34 -12,12 -24,24 -37,34 -3,2 -6,4 -9,7 -1,12 -8,24 -20,29 -21,10 -38,5 -52,-8z"/>
   <path class="fil2" d="M268 266c0,-14 7,-26 18,-33 5,-4 11,-6 17,-8 24,-7 55,-2 84,11 14,5 28,12 40,21 1,-1 2,-2 3,-3l1 0c12,-10 23,-21 32,-33 7,-10 13,-20 15,-29 1,-2 1,-4 2,-6 -18,-13 -37,-23 -57,-31 -13,-5 -27,-10 -41,-13 -16,-4 -34,-7 -52,-8 -37,-1 -74,5 -103,27 -32,24 -53,62 -53,105 0,48 26,90 65,113 23,14 48,19 73,20 -5,-13 -10,-26 -14,-39 -5,-16 -9,-33 -11,-50 0,-4 -1,-7 -1,-10 -11,-8 -18,-20 -18,-34z"/>
   <path class="fil3" d="M678 306l36 -7c0,4 0,7 1,10 0,2 0,5 1,8 0,4 1,6 2,8 1,2 2,4 4,6 2,1 4,2 6,2 7,0 10,-5 10,-14 0,-12 -6,-24 -20,-36l-11 -10c-4,-3 -7,-5 -9,-7 -2,-2 -4,-5 -7,-8 -3,-3 -5,-7 -7,-10 -1,-3 -3,-6 -4,-11 -1,-4 -1,-9 -1,-14 0,-14 4,-25 13,-33 9,-9 21,-13 36,-13 12,0 23,5 32,13 8,9 13,20 13,32l0 2c0,1 0,2 0,3l-37 5c0,-1 0,-2 0,-4 0,-1 0,-2 0,-3 0,-3 0,-5 0,-7 0,-2 -1,-4 -2,-7 -1,-2 -2,-3 -3,-5 -2,-1 -4,-2 -6,-2 -4,0 -7,2 -9,5 -2,3 -3,7 -3,11 0,3 1,7 2,10 1,3 3,6 5,9 3,3 5,5 7,7 2,2 4,4 7,6 4,3 6,5 7,6 5,5 10,9 13,13 3,4 7,8 10,13 3,5 5,10 7,16 1,5 2,11 2,18 0,12 -4,22 -13,30 -9,8 -20,12 -32,12 -8,0 -16,-2 -22,-5 -6,-3 -11,-7 -15,-12 -4,-5 -7,-11 -9,-17 -2,-6 -3,-13 -4,-20zm133 50l0 -58 -32 -117 33 0 16 77c2,-9 5,-21 9,-39 4,-17 7,-30 9,-38l33 0 -33 117 0 58 -35 0zm80 0l0 -175 26 0 38 91 0 -91 30 0 0 175 -25 0 -38 -97 0 97 -31 0zm114 -58l0 -58c0,-42 17,-63 51,-63 7,0 14,1 19,3 6,2 10,5 14,8 4,4 7,8 9,13 3,5 5,10 6,16 1,6 1,12 1,19l0 15 -35 0 0 -16c0,-3 0,-6 0,-8 0,-3 0,-5 -1,-8 0,-3 -1,-6 -2,-8 -1,-1 -2,-3 -4,-4 -2,-2 -4,-2 -7,-2 -10,0 -15,8 -15,26l0 75c0,18 5,26 15,26 3,0 6,-1 8,-2 2,-2 3,-5 4,-8 1,-3 2,-6 2,-9 0,-3 1,-7 1,-11l0 -18 34 0 0 15c0,7 0,13 -1,18 -1,6 -3,12 -5,17 -3,5 -6,10 -9,13 -4,4 -9,7 -14,9 -6,2 -13,4 -20,4 -8,0 -14,-1 -20,-4 -6,-2 -11,-5 -15,-8 -3,-4 -7,-9 -9,-14 -3,-5 -4,-11 -5,-17 -1,-6 -2,-12 -2,-19zm119 58l0 -175 35 0 0 72 26 0 0 -72 35 0 0 175 -35 0 0 -78 -26 0 0 78 -35 0zm155 -102l10 0c2,0 5,-1 7,-3 2,-2 3,-4 4,-7 1,-3 2,-5 2,-8 0,-2 0,-4 0,-6 0,-2 0,-4 0,-7 0,-2 -1,-4 -2,-7 0,-3 -2,-5 -3,-7 -2,-1 -4,-2 -7,-2l-11 0 0 47zm-36 102l0 -175 39 0c9,0 16,1 23,2 7,2 12,5 17,8 5,4 9,8 12,14 2,6 4,14 4,22 0,4 0,7 -1,10 0,3 -1,6 -2,10 0,3 -2,6 -3,9 -2,3 -4,6 -7,9 -3,2 -7,5 -11,6 10,34 19,62 27,85l-36 0 -21 -81 -5 0 0 81 -36 0zm109 -57l0 -59c0,-42 17,-63 51,-63 35,0 52,21 52,63l0 58c0,7 -1,13 -2,19 -1,6 -3,12 -5,17 -3,5 -6,10 -10,14 -3,3 -8,6 -14,8 -6,3 -13,4 -21,4 -7,0 -14,-1 -20,-4 -6,-2 -10,-5 -14,-8 -4,-4 -7,-8 -10,-13 -2,-6 -4,-11 -5,-17 -1,-6 -2,-12 -2,-19zm67 8l0 -76c0,-18 -5,-26 -16,-26 -3,0 -5,1 -8,2 -2,2 -3,4 -5,7 -1,2 -1,5 -2,8 0,3 0,6 0,9l0 76c0,17 5,25 15,25 11,0 16,-8 16,-25zm56 49l0 -175 26 0 38 91 0 -91 30 0 0 175 -25 0 -38 -97 0 97 -31 0zm117 0l0 -175 35 0 0 175 -35 0zm75 0l0 -149 -26 0 0 -26 86 0 0 26 -25 0 0 149 -35 0z"/>
  </g>
 </g>
</svg>
