<?xml version="1.0" encoding="UTF-8"?>
<!DOCTYPE svg PUBLIC "-//W3C//DTD SVG 1.1//EN" "http://www.w3.org/Graphics/SVG/1.1/DTD/svg11.dtd">
<!-- Creator: CorelDRAW X7 -->
<svg xmlns="http://www.w3.org/2000/svg" xml:space="preserve" width="10.1688mm" height="10.1688mm" version="1.1" style="shape-rendering:geometricPrecision; text-rendering:geometricPrecision; image-rendering:optimizeQuality; fill-rule:evenodd; clip-rule:evenodd"
viewBox="0 0 1017 1017"
 xmlns:xlink="http://www.w3.org/1999/xlink">
 <defs>
  <style type="text/css">
   <![CDATA[
    .fil2 {fill:#256D9B}
    .fil1 {fill:#EBA12C}
    .fil0 {fill:whitesmoke}
   ]]>
  </style>
 </defs>
 <g id="Capa_x0020_1">
  <metadata id="CorelCorpID_0Corel-Layer"/>
  <g id="_285415256016">
   <circle class="fil0" cx="508" cy="508" r="508"/>
   <g>
    <path class="fil1" d="M386 626c3,-4 19,-19 30,-30l0 0c3,-3 6,-6 8,-8 1,-1 2,-2 3,-3l0 0c3,-3 7,-5 7,-11 0,-3 -2,-5 -3,-7 -3,-2 -7,-2 -10,-2l-145 0c-4,0 -7,1 -10,2l0 0c-2,2 -3,5 -3,9l0 151c0,3 1,5 3,6 2,2 5,2 8,2 4,0 15,-11 21,-18 2,-2 3,-3 4,-4 1,-1 3,-3 6,-6 6,-6 14,-15 19,-18l1 -1 1 1c2,1 5,5 10,9 7,6 15,14 23,19l0 0 5 3c4,3 8,6 13,9 17,10 37,19 59,26 19,5 40,9 59,9l1 0 13 0 0 0c11,0 18,0 26,-1 8,-1 17,-3 31,-6 7,-1 13,-3 20,-6 6,-2 13,-4 19,-7 13,-5 27,-13 40,-22 14,-9 27,-20 38,-30l3 -3 0 0c1,-2 2,-3 3,-4l0 0c2,-1 2,-2 3,-3l0 0c1,-2 2,-3 4,-4 3,-4 6,-8 9,-12l2 -3 1 0 0 0c4,-6 7,-10 10,-16 1,-1 2,-2 3,-3 0,-2 1,-3 2,-4l2 -3c1,-2 2,-4 3,-6 3,-6 10,-21 15,-34 4,-10 6,-20 6,-25 0,-3 -1,-4 -2,-6 -2,-1 -5,-2 -8,-2l-66 0c-8,0 -10,4 -13,12 -2,5 -5,12 -9,19 -6,9 -12,18 -19,26 -6,8 -13,15 -20,20l-2 2c-2,2 -4,3 -6,5l0 0c-29,20 -60,31 -92,32 -31,1 -63,-7 -94,-25 -5,-3 -12,-8 -19,-14 -5,-4 -10,-9 -13,-13l0 -1 0 -1z"/>
    <path class="fil2" d="M266 441c0,3 1,5 3,7l0 0c1,2 4,3 7,3l66 0c9,0 10,-4 12,-10l0 0 1 -2 0 -1c5,-11 12,-24 21,-35 8,-12 18,-22 28,-30 9,-7 17,-13 26,-18 9,-5 18,-9 30,-13 24,-8 47,-10 69,-7 24,3 46,12 68,24 5,3 13,9 19,14 6,5 11,10 13,13l1 1 -1 1c-2,4 -18,20 -29,30 -4,3 -6,6 -9,8 0,1 -1,2 -2,3 -4,3 -7,6 -7,12 0,1 0,2 1,4 1,1 1,2 2,3l0 0c1,0 3,1 4,1 2,0 4,1 6,1l144 0c5,0 8,-1 10,-3 2,-2 3,-4 3,-8l0 -152c0,-2 -1,-4 -2,-6 -2,-1 -5,-2 -9,-2 -4,0 -15,12 -21,18 -1,2 -2,3 -3,4 -2,2 -4,4 -6,6 -7,7 -15,15 -19,18l-1 1 -1 -1c-4,-2 -7,-5 -10,-8 -2,-2 -4,-4 -7,-6l0 0c-2,-2 -4,-3 -6,-5 -3,-3 -7,-6 -11,-9 -19,-13 -40,-25 -63,-33 -22,-8 -46,-14 -72,-14l-2 0 -12 0 0 0c-11,0 -18,1 -26,2 -8,1 -17,2 -31,5 -15,3 -30,9 -46,16 -16,8 -31,17 -43,26l-22 18 0 0c-5,4 -9,9 -13,13 -2,2 -4,5 -6,7 -3,2 -7,8 -11,13 -5,7 -10,13 -12,17 -7,13 -8,15 -11,21 -2,3 -4,7 -7,13 -2,3 -6,14 -9,24 -2,7 -4,13 -4,16z"/>
   </g>
  </g>
 </g>
</svg>
