<?xml version="1.0" encoding="UTF-8"?>
<!DOCTYPE svg PUBLIC "-//W3C//DTD SVG 1.1//EN" "http://www.w3.org/Graphics/SVG/1.1/DTD/svg11.dtd">
<!-- Creator: CorelDRAW X7 -->
<svg xmlns="http://www.w3.org/2000/svg" xml:space="preserve" width="10.1688mm" height="10.1688mm" version="1.1" style="shape-rendering:geometricPrecision; text-rendering:geometricPrecision; image-rendering:optimizeQuality; fill-rule:evenodd; clip-rule:evenodd"
viewBox="0 0 1017 1017"
 xmlns:xlink="http://www.w3.org/1999/xlink">
 <defs>
  <style type="text/css">
   <![CDATA[
    .fil1 {fill:#256D9B}
    .fil2 {fill:#EBA12C}
    .fil0 {fill:whitesmoke}
   ]]>
  </style>
 </defs>
 <g id="Capa_x0020_1">
  <metadata id="CorelCorpID_0Corel-Layer"/>
  <g id="_285281988736">
   <circle class="fil0" cx="508" cy="508" r="508"/>
   <g>
    <path class="fil1" d="M729 439c-3,10 -7,20 -12,29l15 19c5,6 4,15 -1,21l-26 25c-6,6 -15,7 -21,2l-19 -15c-9,5 -20,10 -30,13l-3 24c-1,8 -8,14 -15,14l-37 0c-8,0 -14,-6 -15,-14l-3 -23c-12,-3 -23,-8 -33,-14l-18 15c-6,5 -15,4 -21,-1l-26 -26c-5,-6 -6,-15 -1,-21l14 -18c-5,-10 -10,-21 -13,-32l-22 -3c-8,-1 -14,-7 -14,-15l0 -37c0,-7 6,-14 14,-15l22 -2c3,-12 7,-22 13,-32l-14 -17c-5,-6 -4,-15 2,-21l25 -25c6,-6 15,-7 21,-2l16 13c11,-6 22,-11 34,-14l2 -21c1,-8 8,-14 16,-14l36 0c8,0 15,6 15,14l3 21c12,3 24,8 34,15l17 -14c6,-5 15,-4 21,2l26 25c5,6 6,15 1,21l-14 18c5,10 10,21 12,32l23 3c8,1 14,7 14,15l0 37c0,7 -6,14 -14,15l-24 3zm-132 -99c-34,0 -61,27 -61,60 0,34 27,61 61,61 33,0 60,-27 60,-61 0,-33 -27,-60 -60,-60z"/>
    <path class="fil2" d="M235 448l20 -17c6,-5 14,-4 20,1l11 10c9,-4 18,-8 28,-9l3 -15c2,-8 9,-13 16,-12l26 2c7,1 13,7 14,15l0 15c10,3 19,8 27,14l13 -9c6,-4 15,-3 20,3l16 20c5,6 5,14 0,20l-11 12c4,9 6,18 8,27l16 3c7,2 13,9 12,17l-2 25c-1,8 -7,14 -15,14l-17 0c-3,9 -7,16 -12,24l9 14c5,7 3,15 -3,20l-19 17c-6,5 -14,4 -20,-1l-13 -12c-8,4 -17,7 -26,9l-3 17c-2,8 -9,13 -16,12l-26 -2c-7,-1 -13,-7 -14,-15l0 -17c-9,-3 -18,-7 -26,-13l-14 9c-6,5 -15,4 -20,-2l-16 -20c-5,-6 -5,-14 0,-20l11 -12c-4,-9 -7,-18 -8,-27l-16 -3c-7,-2 -13,-9 -12,-17l2 -25c1,-8 7,-14 15,-14l15 0c3,-9 8,-18 13,-26l-8 -12c-5,-7 -3,-15 2,-20zm95 145c27,2 51,-18 54,-45 2,-27 -18,-51 -45,-53 -28,-3 -52,17 -54,45 -2,27 18,51 45,53z"/>
    <path class="fil1" d="M641 661c8,1 14,7 14,15l0 15c0,8 -6,15 -13,16l-12 1c-2,7 -4,14 -8,20l8 9c5,6 4,15 -1,20l-11 11c-6,6 -14,7 -20,2l-10 -7c-6,4 -13,7 -20,9l-1 11c-1,8 -7,14 -15,14l-16 0c-7,0 -14,-5 -15,-13l-1 -11c-8,-2 -16,-5 -23,-9l-8 7c-6,5 -15,5 -20,-1l-11 -11c-6,-5 -7,-14 -2,-20l7 -8c-4,-7 -8,-14 -10,-22l-10 -1c-8,-1 -13,-7 -14,-15l0 -15c0,-8 6,-15 14,-16l10 -1c1,-8 4,-15 8,-21l-6 -8c-5,-6 -5,-15 1,-20l11 -11c5,-6 14,-7 20,-2l7 6c7,-4 15,-8 23,-10l1 -9c0,-8 7,-14 15,-14l15 0c8,0 14,5 15,13l2 10c8,2 16,5 23,9l7 -6c6,-5 15,-5 21,1l11 11c5,5 6,14 1,20l-6 8c4,7 7,14 8,22l11 1zm-100 -18c-22,1 -40,19 -40,41 1,22 19,40 41,40 22,0 40,-19 40,-41 0,-22 -19,-40 -41,-40z"/>
   </g>
  </g>
 </g>
</svg>
