<?xml version="1.0" encoding="UTF-8"?>
<!DOCTYPE svg PUBLIC "-//W3C//DTD SVG 1.1//EN" "http://www.w3.org/Graphics/SVG/1.1/DTD/svg11.dtd">
<!-- Creator: CorelDRAW X7 -->
<svg xmlns="http://www.w3.org/2000/svg" xml:space="preserve" width="10.1688mm" height="10.1688mm" version="1.1" style="shape-rendering:geometricPrecision; text-rendering:geometricPrecision; image-rendering:optimizeQuality; fill-rule:evenodd; clip-rule:evenodd"
viewBox="0 0 1017 1017"
 xmlns:xlink="http://www.w3.org/1999/xlink">
 <defs>
  <style type="text/css">
   <![CDATA[
    .fil1 {fill:#256D9B}
    .fil2 {fill:#EBA12C}
    .fil0 {fill:whitesmoke}
   ]]>
  </style>
 </defs>
 <g id="Capa_x0020_1">
  <metadata id="CorelCorpID_0Corel-Layer"/>
  <g id="_285415265520">
   <circle class="fil0" cx="508" cy="508" r="508"/>
   <g>
    <path class="fil1" d="M225 387c37,3 37,5 39,9 6,9 24,8 34,8l412 0c54,-4 -4,-14 65,-17 0,-38 2,-33 -31,-44l-104 -38c-182,-67 -103,-66 -353,26 -36,13 -55,14 -62,32l0 24z"/>
    <path class="fil2" d="M783 755c2,-30 2,-55 -32,-58 -6,0 -13,0 -20,0l-13 0c-1,0 -1,0 -2,0l-334 0 -52 0c-110,0 -107,0 -104,58l557 0z"/>
    <path class="fil1" d="M261 666l478 0c-1,-31 -2,-30 -28,-33l0 -1 -8 0 -1 -1 0 -197 -73 0 0 198 -37 0 0 -198 -74 0 0 198 -36 0 0 -198 -73 0 0 198 -37 0 0 -198 -74 0 0 198 -11 0c-21,0 -26,9 -26,34z"/>
   </g>
  </g>
 </g>
</svg>
