<?xml version="1.0" encoding="UTF-8"?>
<!DOCTYPE svg PUBLIC "-//W3C//DTD SVG 1.1//EN" "http://www.w3.org/Graphics/SVG/1.1/DTD/svg11.dtd">
<!-- Creator: CorelDRAW X7 -->
<svg xmlns="http://www.w3.org/2000/svg" xml:space="preserve" width="10.1688mm" height="10.1688mm" version="1.1" style="shape-rendering:geometricPrecision; text-rendering:geometricPrecision; image-rendering:optimizeQuality; fill-rule:evenodd; clip-rule:evenodd"
viewBox="0 0 1017 1017"
 xmlns:xlink="http://www.w3.org/1999/xlink">
 <defs>
  <style type="text/css">
   <![CDATA[
    .fil1 {fill:#256D9B}
    .fil2 {fill:#EBA12C}
    .fil0 {fill:whitesmoke}
   ]]>
  </style>
 </defs>
 <g id="Capa_x0020_1">
  <metadata id="CorelCorpID_0Corel-Layer"/>
  <g id="_285123176624">
   <circle class="fil0" cx="508" cy="508" r="508"/>
   <path class="fil1" d="M484 332c50,-8 109,12 147,45 19,17 31,31 44,54 41,73 29,158 -22,220 -67,81 -194,93 -274,22 -71,-61 -91,-162 -43,-246 6,-9 14,-21 20,-28 39,-41 67,-58 128,-67zm16 -121c20,-5 39,18 28,39 -4,8 -6,8 -17,7 -5,0 -9,0 -13,1 -5,0 -9,0 -12,-2 -9,-7 -16,-38 14,-45zm-9 582l29 0c2,-1 22,-3 27,-4 87,-14 155,-65 196,-142 49,-91 33,-212 -26,-285 -14,-17 -14,-17 -30,-32 -5,-6 -10,-10 -16,-14l-18 -13c-23,-17 -52,-30 -85,-38 1,-4 4,-11 4,-17 6,-32 -13,-64 -43,-75 -5,-2 -11,-2 -15,-5l-19 0 -4 2c-1,0 -2,0 -4,1 -34,9 -56,42 -50,77 1,5 4,13 4,17 -30,8 -61,21 -85,38 -30,21 -41,31 -64,60 -35,43 -62,115 -54,190 14,122 106,219 226,237 5,1 24,2 27,3z"/>
   <path class="fil2" d="M498 504c29,-9 42,34 14,43 -29,9 -43,-34 -14,-43zm-105 133c23,-8 71,-33 98,-44 7,-3 34,7 62,-19 25,-24 17,-57 21,-64l26 -58c3,-7 15,-33 16,-39l-77 35c-7,2 -14,6 -20,9 -6,2 -41,-5 -63,21 -28,30 -15,51 -20,62 -4,9 -42,93 -43,97z"/>
  </g>
 </g>
</svg>
