<?xml version="1.0" encoding="UTF-8"?>
<!DOCTYPE svg PUBLIC "-//W3C//DTD SVG 1.1//EN" "http://www.w3.org/Graphics/SVG/1.1/DTD/svg11.dtd">
<!-- Creator: CorelDRAW X7 -->
<svg xmlns="http://www.w3.org/2000/svg" xml:space="preserve" width="19.0168mm" height="5.3264mm" version="1.1" style="shape-rendering:geometricPrecision; text-rendering:geometricPrecision; image-rendering:optimizeQuality; fill-rule:evenodd; clip-rule:evenodd"
viewBox="0 0 1902 533"
 xmlns:xlink="http://www.w3.org/1999/xlink">
 <defs>
  <style type="text/css">
   <![CDATA[
    .fil1 {fill:#2495D7}
    .fil2 {fill:#256D9B}
    .fil0 {fill:#61B5E3}
    .fil3 {fill:white}
   ]]>
  </style>
 </defs>
 <g id="Capa_x0020_1">
  <metadata id="CorelCorpID_0Corel-Layer"/>
  <g id="_285415263536">
   <path class="fil0" d="M392 180c-8,30 -35,62 -66,86l0 0 0 0 0 0 0 0 0 0 0 0 0 0 0 0 0 0 0 0 0 0 0 0 0 0 0 0 0 0 0 0 0 0 0 0 0 0 0 0 0 0 0 0 0 0 0 1 0 0 0 0 0 0 0 0 0 0 0 0 0 0 0 0c-1,1 -3,2 -4,3l0 0 0 0 0 0c0,0 0,0 0,0l-3 2 0 0c-13,10 -27,18 -39,23 0,2 0,4 1,6 3,17 8,36 15,53 6,14 14,26 22,34 3,2 5,4 7,6 24,-12 46,-25 67,-42 30,-24 57,-53 78,-86 2,-3 5,-7 7,-11 16,-28 28,-55 29,-88 3,-58 -26,-115 -80,-146 -61,-35 -136,-26 -186,18 -15,13 -27,30 -38,47 8,0 16,1 23,2 12,2 23,4 35,7 9,2 18,5 26,8 9,2 18,6 26,9 5,2 9,4 13,5 25,-9 56,2 66,29 4,11 4,22 1,34z"/>
   <path class="fil1" d="M116 266c0,-17 8,-32 21,-41 6,-4 13,-7 21,-10 29,-8 67,-1 103,14 17,7 34,15 49,25 1,-1 3,-2 4,-3l0 0c15,-12 29,-26 40,-40 9,-12 16,-24 19,-36 1,-2 1,-5 1,-8 -21,-15 -45,-27 -69,-37 -16,-6 -33,-12 -50,-16 -20,-5 -42,-8 -64,-9 -45,-2 -90,6 -126,32 -39,30 -64,76 -64,129 0,59 32,111 79,138 29,17 58,23 90,24 -7,-15 -13,-31 -18,-47 -6,-20 -11,-41 -13,-62 -1,-4 -1,-7 -2,-11 -13,-10 -21,-25 -21,-42z"/>
   <path class="fil2" d="M305 402c-23,-21 -38,-62 -44,-98 -2,-14 -3,-27 -3,-38 0,-6 0,-11 1,-17 -2,-1 -3,-2 -5,-2 -17,-7 -35,-12 -51,-14 -15,-2 -28,-2 -40,1 -2,1 -5,2 -7,3 -3,25 -2,52 2,80 5,38 16,77 33,111 18,34 41,63 72,82 48,29 111,32 163,2 63,-37 92,-109 76,-177 -4,-16 -12,-34 -21,-50 -9,14 -20,28 -32,41 -14,15 -29,29 -45,42 -3,2 -7,5 -10,8 -2,15 -11,29 -25,36 -26,12 -47,6 -64,-10z"/>
   <path class="fil3" d="M661 307l-42 9c0,4 0,8 1,11l0 0c1,5 2,8 3,12l0 0c1,4 3,8 5,11 1,4 3,7 6,10 2,3 5,6 8,8 3,3 6,5 10,7 4,1 8,3 12,4 5,1 9,1 14,1 8,0 15,-1 21,-4 7,-2 13,-5 18,-10l0 0c5,-5 9,-10 12,-16 2,-6 4,-13 4,-20 0,-4 -1,-8 -1,-12 -1,-4 -1,-7 -2,-11 -1,-3 -2,-6 -4,-10 -1,-3 -3,-6 -4,-9l0 0c-2,-3 -4,-6 -6,-8 -2,-3 -4,-5 -6,-8l0 0c-2,-2 -5,-5 -7,-7 -3,-3 -6,-5 -9,-8l0 0c-1,-1 -2,-2 -3,-3 -2,-1 -3,-2 -5,-4l0 0c-2,-2 -4,-3 -5,-4 -2,-2 -3,-3 -5,-4l0 0c-1,-1 -2,-3 -4,-4 -1,-1 -2,-3 -4,-5l0 0c-1,-1 -2,-3 -3,-5 -1,-2 -2,-4 -3,-6 -1,-2 -1,-4 -2,-6 0,-2 0,-4 0,-7 0,-2 0,-5 1,-7 0,-2 1,-4 2,-6l0 0c2,-2 3,-4 5,-5 2,-1 4,-1 7,-1 1,0 3,0 4,0 1,1 2,1 3,2 1,1 2,2 3,3 1,1 1,2 2,4 0,1 1,3 1,4 0,1 1,3 1,4l0 0c0,1 0,3 0,4 0,1 0,3 0,4 0,1 0,2 0,2 0,1 0,2 0,3 0,1 0,2 0,2l0 1 43 -6 0 -3 0 0 0 -1c0,-8 -1,-15 -4,-21 -2,-7 -6,-13 -11,-18 -6,-5 -11,-9 -18,-12 -6,-3 -13,-4 -21,-4 -9,0 -17,1 -24,4 -7,2 -14,6 -19,11 -5,5 -10,11 -12,18 -3,6 -4,14 -4,23 0,3 0,6 0,8 1,3 1,6 2,9 0,2 1,5 2,7 1,2 2,4 3,6 1,2 2,4 3,6 1,2 3,4 5,6 1,2 3,3 4,5 2,2 3,3 5,4l0 0c1,1 2,3 4,4 2,2 4,3 6,5l0 0 13 12 0 0c9,7 15,15 20,22 4,8 6,15 6,23 0,6 -1,10 -3,13l0 0c-3,3 -6,4 -11,4 -1,0 -3,0 -4,0 -1,-1 -2,-2 -4,-2 -1,-1 -2,-2 -3,-3 0,-2 -1,-3 -2,-4l0 0c0,-1 -1,-3 -1,-5 -1,-1 -1,-3 -2,-5l0 0c0,-2 0,-4 0,-6 -1,-1 -1,-3 -1,-5 0,-2 0,-3 0,-5 0,-2 0,-4 0,-6zm120 -2l0 71 41 0 0 -71 0 0 0 0 40 -143 -38 0c-1,6 -3,12 -4,19 -2,9 -5,18 -7,28l-4 17c-3,12 -5,22 -7,30l-1 4 -1 -4 -19 -94 -40 0 40 143 0 0 0 0zm98 -143l0 214 36 0 0 -119 0 -4 1 4 47 119 29 0 0 -214 -35 0 0 112 0 4 -1 -4 -47 -112 -30 0zm140 72l0 71c0,4 0,8 0,12 0,4 1,8 1,11l0 0c1,4 2,7 3,11 1,3 2,7 4,10 1,3 3,6 5,9 2,3 4,5 6,7 2,2 5,4 8,6 3,2 6,3 10,5l0 0c3,1 7,2 11,3 4,0 8,1 13,1 4,0 9,-1 13,-1 4,-1 7,-2 11,-3l0 0c3,-2 6,-3 9,-5 3,-2 5,-4 8,-6 2,-2 4,-5 6,-7 1,-3 3,-6 4,-9l0 0c2,-4 3,-7 4,-10 1,-3 2,-7 2,-10 1,-4 1,-7 2,-11 0,-4 0,-8 0,-12l0 0 0 -17 -40 0 0 21c0,5 -1,9 -1,13 0,2 -1,4 -1,6 0,2 -1,4 -1,6l0 0c-1,2 -2,4 -3,5 -1,2 -2,3 -3,4l0 0c-1,2 -3,2 -5,3 -1,1 -3,1 -5,1 -7,0 -12,-3 -15,-8 -3,-6 -5,-14 -5,-25l0 -92c0,-11 2,-19 5,-24 3,-6 8,-9 15,-9 2,0 3,0 5,1 1,0 2,1 4,2 1,1 2,1 3,3 1,1 1,2 2,3 1,1 1,2 2,4 0,1 0,3 1,5l0 0c0,2 0,3 1,5 0,2 0,3 0,5 0,1 0,3 0,4 0,2 0,4 0,6l0 19 41 0 0 -18c0,-4 0,-8 0,-12 0,-4 -1,-8 -1,-11l0 0c-1,-4 -2,-7 -3,-10 -1,-4 -2,-7 -4,-10 -1,-3 -3,-5 -5,-8 -2,-2 -4,-5 -6,-7l0 0c-2,-2 -5,-4 -8,-5 -3,-2 -6,-3 -9,-4l0 0c-3,-1 -7,-2 -11,-3 -4,0 -8,-1 -12,-1 -21,0 -36,7 -46,19 -10,13 -15,31 -15,57zm145 -72l0 214 42 0 0 -95 0 -1 0 0 31 0 1 0 0 1 0 95 42 0 0 -214 -42 0 0 88 0 1 -1 0 -31 0 0 0 0 -1 0 -88 -42 0zm201 90l-12 0 -1 0 0 -1 0 -57 0 -1 1 0 14 0c2,0 3,0 4,1 2,0 3,1 4,2 1,1 2,2 3,4 1,1 1,3 2,5l0 0c0,1 1,3 1,4 0,2 1,3 1,5l0 0c0,1 0,2 0,4 0,1 0,2 0,4 0,1 0,2 0,4 0,1 0,2 0,4l0 0c0,1 -1,3 -1,4 -1,2 -1,4 -2,5 0,2 -1,4 -2,5 -1,2 -2,3 -3,4 -1,1 -3,2 -4,3 -2,1 -3,1 -5,1zm-55 -90l0 214 42 0 0 -99 0 0 1 0 7 0 0 0 0 0 25 99 43 0c-5,-14 -10,-30 -15,-47 -6,-17 -12,-36 -18,-56l0 -1 0 0c3,-1 5,-2 7,-4 2,-1 4,-3 6,-4 2,-2 4,-4 5,-5 2,-2 3,-4 4,-5l0 0c1,-2 2,-4 2,-6 1,-2 2,-4 2,-6l0 0c1,-2 1,-4 2,-6 0,-2 0,-4 1,-6l0 0c0,-2 0,-4 0,-5 0,-2 0,-5 0,-7 0,-5 0,-10 -1,-14 -1,-4 -2,-8 -4,-12l0 0c-1,-4 -3,-7 -6,-10 -2,-2 -4,-5 -7,-7l0 0c-3,-2 -7,-4 -10,-6 -4,-1 -8,-3 -12,-4l0 0c-4,-1 -8,-1 -13,-2 -4,0 -9,-1 -15,-1l-46 0zm133 72l0 72c0,4 1,8 1,12 0,4 1,8 1,11l0 0c1,4 2,7 3,11 1,3 2,6 4,10l0 0c1,3 3,6 5,8 2,3 4,5 6,8l0 0c3,2 5,4 8,5 3,2 6,4 10,5l0 0c3,1 7,2 11,3 4,0 9,1 13,1 5,0 9,-1 13,-1 4,-1 8,-2 12,-3 3,-1 7,-3 10,-5 3,-2 5,-4 8,-6 2,-2 4,-5 6,-7 2,-3 4,-6 5,-9l0 0c2,-3 3,-7 4,-10 1,-4 2,-7 2,-11 1,-3 2,-7 2,-11 0,-4 0,-8 0,-12l0 -71c0,-26 -5,-44 -15,-57 -10,-12 -26,-19 -47,-19 -20,0 -36,7 -46,19 -10,13 -16,31 -16,57zm83 -11l0 93c0,10 -2,18 -5,24 -4,5 -9,8 -16,8 -6,0 -11,-3 -15,-8 -3,-6 -5,-14 -5,-24l0 -93c0,-2 0,-4 0,-6 1,-2 1,-4 1,-5l0 0c0,-2 1,-4 1,-5 1,-2 1,-4 2,-5l0 0c0,-2 1,-4 2,-5 1,-1 3,-3 4,-4 1,-1 3,-2 5,-2 1,-1 3,-1 5,-1 7,0 12,3 16,9 3,5 5,13 5,24zm68 -61l0 214 36 0 0 -119 0 -4 1 4 47 119 29 0 0 -214 -34 0 0 112 0 4 -2 -4 -47 -112 -30 0zm143 0l0 214 41 0 0 -214 -41 0zm91 32l0 182 42 0 0 -182 0 -1 1 0 30 0 0 -31 -104 0 0 31 31 0 0 0 0 1z"/>
  </g>
 </g>
</svg>
