<?xml version="1.0" encoding="UTF-8"?>
<!DOCTYPE svg PUBLIC "-//W3C//DTD SVG 1.1//EN" "http://www.w3.org/Graphics/SVG/1.1/DTD/svg11.dtd">
<!-- Creator: CorelDRAW X7 -->
<svg xmlns="http://www.w3.org/2000/svg" xml:space="preserve" width="10.1688mm" height="10.1688mm" version="1.1" style="shape-rendering:geometricPrecision; text-rendering:geometricPrecision; image-rendering:optimizeQuality; fill-rule:evenodd; clip-rule:evenodd"
viewBox="0 0 1017 1017"
 xmlns:xlink="http://www.w3.org/1999/xlink">
 <defs>
  <style type="text/css">
   <![CDATA[
    .fil3 {fill:#256D9B}
    .fil0 {fill:whitesmoke}
    .fil1 {fill:#256D9B;fill-rule:nonzero}
    .fil2 {fill:#EBA12C;fill-rule:nonzero}
   ]]>
  </style>
 </defs>
 <g id="Capa_x0020_1">
  <metadata id="CorelCorpID_0Corel-Layer"/>
  <g id="_285415272400">
   <circle class="fil0" cx="508" cy="508" r="508"/>
   <path class="fil1" d="M363 509c-5,31 5,65 13,94 21,72 63,174 157,148 15,-4 22,-11 36,-14 14,-3 32,-4 48,-5 19,0 11,3 -2,17 -51,56 -117,68 -187,21 -28,-19 -45,-39 -63,-67l-6 -10c-20,-36 -35,-83 -43,-129 7,-11 16,-24 27,-36 6,-7 13,-13 20,-19z"/>
   <path class="fil1" d="M702 570c-6,42 -19,77 -55,87 -25,8 -23,10 -18,-16 5,-31 18,-40 22,-85 1,-13 2,-25 2,-35 20,15 35,32 49,49z"/>
   <path class="fil2" d="M311 478c2,-24 8,-48 22,-71 18,-32 43,-57 74,-74 31,-16 67,-25 108,-25 99,4 188,75 191,175 0,13 2,46 1,64 -57,-70 -73,-75 -165,-70 13,22 20,25 42,41 -62,-1 -130,-2 -184,-46 -4,-4 -9,-8 -14,-10l-4 -1c-33,14 -50,51 -71,78 -1,-14 -1,-48 0,-61z"/>
   <path class="fil3" d="M574 279c154,53 192,202 140,341 -22,58 -107,66 -161,67 -23,0 -16,-7 -36,-17 -17,-8 -26,-2 -39,9 -25,28 8,84 51,50 29,-23 38,-9 79,-15 126,-16 125,-80 144,-84 55,-13 90,-52 62,-107 -15,-31 -32,-16 -38,-54 -28,-157 -145,-259 -310,-239 -124,16 -206,112 -226,231 -8,48 -6,17 -36,51 -31,36 -18,82 13,102 18,12 43,14 67,11 25,-2 13,-15 6,-42l-3 -14c-17,-84 -9,-160 53,-229 61,-68 147,-83 234,-61z"/>
  </g>
 </g>
</svg>
