<?xml version="1.0" encoding="UTF-8"?>
<!DOCTYPE svg PUBLIC "-//W3C//DTD SVG 1.1//EN" "http://www.w3.org/Graphics/SVG/1.1/DTD/svg11.dtd">
<!-- Creator: CorelDRAW X7 -->
<svg xmlns="http://www.w3.org/2000/svg" xml:space="preserve" width="115.643mm" height="35.2606mm" version="1.1" style="shape-rendering:geometricPrecision; text-rendering:geometricPrecision; image-rendering:optimizeQuality; fill-rule:evenodd; clip-rule:evenodd"
viewBox="0 0 11564 3526"
 xmlns:xlink="http://www.w3.org/1999/xlink">
 <defs>
  <style type="text/css">
   <![CDATA[
    .fil0 {fill:black;fill-opacity:0.129412}
   ]]>
  </style>
 </defs>
 <g id="Capa_x0020_1">
  <metadata id="CorelCorpID_0Corel-Layer"/>
  <g id="_285075153200">
   <g>
    <path class="fil0" d="M2615 2519c147,4 120,190 -22,152l22 -152zm99 417l-735 -108c-16,64 19,100 75,118l545 79c61,-4 108,-27 115,-89zm-571 -520l-39 269c-10,71 23,111 93,121l261 38c70,10 110,-18 123,-88 105,4 184,-15 206,-123 21,-104 -45,-180 -146,-195l-442 -64c-38,-5 -50,0 -56,42z"/>
    <path class="fil0" d="M2519 244c115,-1 100,146 -13,120l13 -120zm90 324l-578 -62c-11,51 18,78 62,90l429 45c48,-5 84,-24 87,-73zm-463 -390l-22 212c-6,56 22,86 76,92l206 22c55,5 85,-18 93,-73 83,0 144,-17 158,-103 13,-82 -41,-139 -120,-148l-348 -36c-30,-3 -39,2 -43,34z"/>
    <path class="fil0" d="M114 1286c-62,12 -99,43 -114,78l0 -163c17,-10 36,-18 57,-25l622 -197c54,-17 72,-11 90,47l120 378c32,101 -7,166 -105,197l-366 117c-99,31 -163,-1 -199,-98 -85,17 -160,22 -219,-5l0 -162c23,53 90,89 181,47l-67 -214zm-45 625l1034 -330c39,89 -4,150 -79,187l-768 244c-89,8 -161,-13 -187,-101z"/>
    <path class="fil0" d="M1527 2608c-29,-19 -125,-63 -160,-63 -25,27 -31,50 -52,80 -84,7 -221,-103 -260,-191 64,-119 110,-32 -27,-224 -138,20 -140,141 -98,226 183,363 632,404 597,172z"/>
    <path class="fil0" d="M1526 1486c23,-18 83,-80 92,-107 -14,-27 -30,-38 -47,-62 17,-67 139,-145 219,-151 74,82 -6,95 180,40 23,-112 -71,-147 -148,-137 -332,44 -485,381 -296,417z"/>
    <path class="fil0" d="M1100 289c-24,15 -91,69 -104,95 11,29 26,42 40,68 -24,64 -155,126 -235,123 -64,-90 17,-93 -175,-60 -35,109 54,154 132,153 334,-5 526,-322 342,-379z"/>
    <path class="fil0" d="M3933 2630c11,-27 56,-101 80,-116 30,6 45,19 72,30 61,-34 104,-172 90,-250 -98,-51 -90,29 -85,-165 103,-50 161,32 171,109 42,331 -245,566 -328,392z"/>
    <path class="fil0" d="M3752 3188c-49,59 -221,214 -294,236 -70,-39 -99,-84 -162,-133 -94,21 -198,118 -279,236l-266 0c302,-573 936,-759 1001,-339z"/>
    <path class="fil0" d="M2347 1527c-127,45 -200,163 -165,263 22,59 77,99 144,112 6,32 1,74 -15,107 58,-26 105,-62 126,-109 13,-3 26,-6 38,-11 127,-44 200,-162 165,-262 -36,-100 -167,-144 -293,-100zm-30 255c-20,7 -42,-3 -49,-23 -7,-20 3,-41 23,-48 20,-7 42,3 49,23 7,20 -4,41 -23,48zm107 -38c-20,7 -42,-3 -49,-23 -7,-20 4,-41 23,-48 20,-7 42,3 49,23 7,19 -4,41 -23,48zm107 -38c-20,7 -41,-3 -48,-23 -7,-20 3,-41 23,-48 19,-7 41,3 48,23 7,19 -3,41 -23,48z"/>
    <path class="fil0" d="M3565 138c-96,-5 -178,53 -182,129 -2,46 23,87 65,115 -6,23 -20,49 -40,67 46,-1 87,-12 114,-38 9,2 19,3 28,4 97,5 179,-53 183,-129 4,-77 -71,-143 -168,-148zm-91 161c-15,0 -26,-13 -25,-28 0,-16 13,-27 28,-26 15,1 27,13 26,29 -1,15 -13,26 -29,25zm82 5c-15,-1 -26,-14 -25,-29 0,-15 13,-27 28,-26 15,1 27,14 26,29 -1,15 -13,27 -29,26zm82 4c-15,-1 -26,-14 -25,-29 0,-15 13,-26 28,-25 15,0 27,13 26,28 -1,15 -13,27 -29,26z"/>
    <path class="fil0" d="M745 -1c13,41 13,83 -2,122 -25,68 -90,113 -168,126 -7,37 -2,85 16,124 -67,-31 -119,-73 -144,-128 -14,-3 -29,-8 -43,-13 -114,-43 -189,-137 -195,-231l112 0c5,8 13,15 23,19 20,7 42,-1 53,-19l48 0c-2,3 -3,6 -4,9 -9,22 3,47 25,56 23,8 48,-3 56,-26 5,-13 3,-28 -4,-39l227 0zm-156 111c22,8 48,-3 56,-26 9,-22 -3,-48 -26,-56 -22,-8 -47,3 -56,26 -8,22 3,47 26,56z"/>
    <path class="fil0" d="M376 2758c165,-36 322,40 350,170 18,78 -15,157 -78,216 15,38 48,79 87,104 -79,11 -152,4 -207,-32 -15,6 -31,10 -48,14 -164,36 -321,-40 -350,-170 -29,-131 81,-266 246,-302zm202 252c26,-6 42,-31 37,-57 -6,-26 -32,-42 -57,-36 -26,5 -42,31 -37,56 6,26 32,42 57,37zm-139 31c25,-6 42,-32 36,-57 -6,-26 -31,-42 -57,-37 -26,6 -42,32 -36,57 5,26 31,42 57,37zm-140 30c25,-5 42,-31 36,-56 -6,-26 -31,-42 -57,-37 -26,6 -42,31 -36,57 5,26 31,42 57,36z"/>
   </g>
   <g>
    <path class="fil0" d="M5201 2945c111,-96 216,61 86,128l-86 -128zm37 582l-188 0 505 -340c36,51 17,99 -26,143l-291 197zm-456 -340l153 225c40,60 91,67 150,27l218 -147c58,-40 69,-88 32,-148 80,-68 126,-135 69,-229 -54,-91 -154,-104 -238,-47l-370 250c-32,22 -37,34 -14,69z"/>
    <path class="fil0" d="M4853 60c-17,-22 -23,-43 -21,-61l-64 0c-2,28 6,57 23,85l180 300c16,26 25,30 53,13l183 -110c48,-29 56,-69 27,-116l-103 -172 -177 0 -101 61zm327 -61l96 0 114 190c17,42 13,81 -34,103l-176 -293z"/>
    <path class="fil0" d="M6732 3342c-25,-15 -92,-69 -105,-94 10,-29 25,-42 39,-68 -25,-65 -157,-126 -236,-122 -64,91 17,93 -174,63 -37,-109 52,-156 130,-155 334,1 529,316 346,376z"/>
    <path class="fil0" d="M6717 -1c-27,36 -52,74 -58,96 25,40 51,55 81,89 -18,105 -196,238 -316,258 -124,-116 -4,-145 -282,-38 -20,174 128,216 245,191 395,-86 597,-436 522,-596l-192 0z"/>
   </g>
   <g>
    <path class="fil0" d="M10818 854c144,-32 162,156 15,153l-15 -153zm196 381l-739 70c-1,67 42,93 100,97l549 -54c58,-18 98,-51 90,-113zm-678 -369l26 270c7,72 49,103 119,96l262 -25c70,-7 102,-44 99,-115 103,-22 175,-58 170,-168 -4,-106 -86,-165 -187,-155l-445 43c-39,4 -48,12 -44,54z"/>
    <path class="fil0" d="M8171 3048c-107,-23 -120,116 -11,114l11 -114zm-145 284l550 52c0,50 -32,70 -75,72l-408 -40c-44,-13 -73,-38 -67,-84zm504 -275l-19 202c-5,53 -37,76 -89,71l-195 -19c-52,-5 -76,-33 -73,-85 -77,-17 -130,-44 -127,-126 3,-79 64,-122 140,-115l330 32c29,3 36,9 33,40z"/>
    <path class="fil0" d="M10382 -1c-1,18 -14,37 -43,47l-22 -47 -203 0 -65 31c-20,10 -24,16 -13,39l69 144c18,38 48,47 85,29l140 -67c38,-18 48,-45 31,-84 42,-25 70,-52 69,-92l-48 0zm104 136l-395 189c13,37 42,43 75,33l293 -140c28,-22 44,-49 27,-82z"/>
    <path class="fil0" d="M7710 307c-87,-8 -84,103 2,91l-2 -91zm-88 237l438 -12c5,39 -18,58 -52,64l-325 8c-35,-6 -61,-23 -61,-60zm371 -264l4 160c1,42 -22,63 -63,64l-155 4c-42,1 -63,-18 -66,-60 -62,-5 -106,-22 -112,-86 -5,-62 39,-102 99,-104l263 -6c23,-1 29,3 30,28z"/>
    <path class="fil0" d="M11268 3171c142,27 86,204 -46,144l46 -144zm-173 356l-341 0 -99 -31c-51,-26 -80,-67 -54,-126l494 157zm-269 -531l-80 255c-22,67 4,111 70,132l247 78c66,21 110,0 134,-65 101,20 181,14 219,-87 37,-97 -14,-182 -110,-212l-419 -133c-36,-11 -48,-8 -61,32z"/>
    <path class="fil0" d="M11565 426c-88,-29 -189,-40 -260,-24 -78,169 56,149 -270,154 -92,-169 41,-272 170,-294 130,-22 252,-14 360,14l0 150z"/>
    <path class="fil0" d="M9478 1958c-26,-14 -96,-65 -110,-90 9,-29 24,-42 36,-69 -28,-63 -162,-118 -242,-110 -58,93 23,92 -171,71 -41,-107 45,-158 123,-161 334,-15 544,290 364,359z"/>
    <path class="fil0" d="M9452 2795c49,-40 213,-139 275,-146 52,44 68,85 111,134 152,-4 379,-229 432,-397 -139,-201 -206,-35 4,-409 253,8 281,227 221,388 -258,691 -1060,855 -1043,430z"/>
    <path class="fil0" d="M11166 1850c145,52 230,187 189,302 -24,69 -88,114 -166,129 -6,37 0,85 18,123 -67,-29 -120,-70 -145,-125 -15,-3 -29,-7 -44,-12 -145,-52 -230,-187 -189,-302 41,-115 192,-166 337,-115zm35 294c22,8 47,-4 56,-27 8,-23 -4,-48 -27,-56 -23,-8 -48,4 -56,27 -8,23 4,48 27,56zm-124 -44c23,8 48,-4 56,-27 8,-22 -4,-47 -26,-55 -23,-9 -48,3 -56,26 -8,23 4,48 26,56zm-123 -44c23,8 48,-4 56,-27 8,-22 -4,-47 -27,-55 -23,-8 -48,4 -56,26 -8,23 4,48 27,56z"/>
    <path class="fil0" d="M7364 2420c154,-8 284,84 291,206 4,72 -37,139 -103,183 8,36 32,78 63,107 -73,-2 -138,-19 -182,-60 -15,3 -30,5 -45,6 -154,8 -284,-84 -291,-206 -6,-122 113,-228 267,-236zm145 257c24,-1 43,-22 41,-46 -1,-24 -21,-42 -46,-41 -24,1 -42,22 -41,46 2,24 22,43 46,41zm-131 7c24,-1 43,-22 42,-46 -2,-24 -22,-42 -46,-41 -24,1 -43,22 -42,46 2,24 22,43 46,41zm-130 7c24,-1 42,-22 41,-46 -1,-24 -22,-42 -46,-41 -24,1 -43,22 -41,46 1,24 22,43 46,41z"/>
    <path class="fil0" d="M8692 2386c-1,-96 61,-175 137,-176 46,0 87,28 112,70 23,-4 50,-17 69,-36 -3,45 -16,86 -43,112 1,9 2,19 2,29 1,96 -60,175 -137,176 -77,0 -139,-78 -140,-175zm166 -83c-1,-15 -13,-27 -28,-27 -15,0 -27,12 -27,28 0,15 12,27 27,27 15,0 28,-13 28,-28zm0 82c0,-15 -12,-27 -27,-27 -16,0 -28,13 -28,28 0,15 13,27 28,27 15,0 27,-13 27,-28zm1 82c0,-15 -13,-27 -28,-27 -15,0 -27,13 -27,28 0,15 12,27 27,27 16,0 28,-12 28,-28z"/>
    <path class="fil0" d="M9401 236c-289,-64 -564,69 -614,298 -30,136 26,275 138,379 -28,66 -86,138 -154,181 139,20 267,8 364,-55 27,9 54,18 83,24 289,64 564,-70 614,-298 51,-229 -143,-466 -431,-529zm-355 441c-45,-10 -73,-55 -63,-100 10,-45 54,-73 99,-63 45,9 74,54 64,99 -10,45 -55,74 -100,64zm245 54c-45,-10 -73,-55 -63,-100 10,-45 54,-73 99,-63 46,10 74,54 64,99 -10,45 -55,74 -100,64zm245 54c-45,-10 -73,-54 -63,-100 10,-45 54,-73 100,-63 45,10 73,54 63,99 -10,46 -54,74 -100,64z"/>
   </g>
  </g>
 </g>
</svg>
